<svg xmlns="http://www.w3.org/2000/svg" width="1000" height="104" viewBox="0 0 1000 104" role="img" aria-labelledby="title desc">
  <title id="title">Tools and technologies</title>
  <desc id="desc">Java, Fabric, NeoForge, Paper, Python, JavaScript, Astro, and C++.</desc>
  <defs>
    <linearGradient id="panel" x1="0" y1="0" x2="1" y2="1">
      <stop offset="0" stop-color="#0b1020"/>
      <stop offset="1" stop-color="#12172a"/>
    </linearGradient>
    <linearGradient id="line" x1="0" y1="0" x2="1" y2="0">
      <stop offset="0" stop-color="#22d3ee"/>
      <stop offset="0.55" stop-color="#8b5cf6"/>
      <stop offset="1" stop-color="#e879f9"/>
    </linearGradient>
  </defs>
  <rect x="1" y="1" width="998" height="102" rx="24" fill="url(#panel)" stroke="#64748b" stroke-opacity="0.22"/>
  <rect x="30" y="20" width="940" height="3" rx="1.5" fill="url(#line)" opacity="0.75"/>
  <g transform="translate(30 38)" font-family="ui-monospace, SFMono-Regular, Menlo, Consolas, monospace" font-size="13" font-weight="700" text-anchor="middle">
    <g><rect width="96" height="42" rx="12" fill="#18181b" stroke="#fb923c" stroke-opacity="0.55"/><circle cx="20" cy="21" r="5" fill="#fb923c"/><text x="59" y="26" fill="#fed7aa">JAVA</text></g>
    <g transform="translate(108)"><rect width="108" height="42" rx="12" fill="#18181b" stroke="#67e8f9" stroke-opacity="0.55"/><circle cx="20" cy="21" r="5" fill="#67e8f9"/><text x="65" y="26" fill="#a5f3fc">FABRIC</text></g>
    <g transform="translate(228)"><rect width="124" height="42" rx="12" fill="#18181b" stroke="#a78bfa" stroke-opacity="0.55"/><circle cx="20" cy="21" r="5" fill="#a78bfa"/><text x="73" y="26" fill="#ddd6fe">NEOFORGE</text></g>
    <g transform="translate(364)"><rect width="102" height="42" rx="12" fill="#18181b" stroke="#86efac" stroke-opacity="0.55"/><circle cx="20" cy="21" r="5" fill="#86efac"/><text x="62" y="26" fill="#bbf7d0">PAPER</text></g>
    <g transform="translate(478)"><rect width="110" height="42" rx="12" fill="#18181b" stroke="#facc15" stroke-opacity="0.55"/><circle cx="20" cy="21" r="5" fill="#facc15"/><text x="66" y="26" fill="#fef08a">PYTHON</text></g>
    <g transform="translate(600)"><rect width="126" height="42" rx="12" fill="#18181b" stroke="#fde047" stroke-opacity="0.55"/><circle cx="20" cy="21" r="5" fill="#fde047"/><text x="74" y="26" fill="#fef9c3">JAVASCRIPT</text></g>
    <g transform="translate(738)"><rect width="94" height="42" rx="12" fill="#18181b" stroke="#f472b6" stroke-opacity="0.55"/><circle cx="20" cy="21" r="5" fill="#f472b6"/><text x="58" y="26" fill="#fbcfe8">ASTRO</text></g>
    <g transform="translate(844)"><rect width="96" height="42" rx="12" fill="#18181b" stroke="#60a5fa" stroke-opacity="0.55"/><circle cx="20" cy="21" r="5" fill="#60a5fa"/><text x="59" y="26" fill="#bfdbfe">C++</text></g>
  </g>
</svg>
